<svg width="44" height="44" viewBox="0 0 44 44" fill="none" xmlns="http://www.w3.org/2000/svg">
<path d="M0 10C0 4.47715 4.47715 0 10 0H34C39.5228 0 44 4.47715 44 10V34C44 39.5228 39.5228 44 34 44H10C4.47715 44 0 39.5228 0 34V10Z" fill="black" fill-opacity="0.25"/>
<path d="M16.11 27.4998C13.9 25.4298 12 22.4798 12 18.6798C12 15.5898 14.49 13.0898 17.56 13.0898C19.38 13.0898 20.99 13.9698 22 15.3298C23.01 13.9698 24.63 13.0898 26.44 13.0898C27.59 13.0898 28.66 13.4398 29.55 14.0498" stroke="white" stroke-width="2" stroke-linecap="round" stroke-linejoin="round"/>
<path d="M31.74 17C31.91 17.53 32 18.1 32 18.69C32 25.69 25.52 29.82 22.62 30.82C22.28 30.94 21.72 30.94 21.38 30.82C20.73 30.6 19.91 30.22 19.02 29.69" stroke="white" stroke-width="2" stroke-linecap="round" stroke-linejoin="round"/>
<path d="M32 12L12 32" stroke="white" stroke-width="2" stroke-linecap="round" stroke-linejoin="round"/>
</svg>
